<mxfile host="app.diagrams.net" agent="Mozilla/5.0 (Windows NT 10.0; Win64; x64) AppleWebKit/537.36 (KHTML, like Gecko) Chrome/131.0.0.0 Safari/537.36 Edg/131.0.0.0" version="24.8.6">
  <diagram name="Page-1" id="74e2e168-ea6b-b213-b513-2b3c1d86103e">
    <mxGraphModel dx="1238" dy="511" grid="1" gridSize="10" guides="1" tooltips="1" connect="1" arrows="1" fold="1" page="1" pageScale="1" pageWidth="1100" pageHeight="850" background="none" math="0" shadow="0">
      <root>
        <mxCell id="0" />
        <mxCell id="1" parent="0" />
        <mxCell id="77e6c97f196da883-1" value="&lt;font face=&quot;Helvetica&quot; style=&quot;font-size: 12px;&quot;&gt;Download Open Data&lt;span style=&quot;font-weight: normal;&quot;&gt; / Here you can download MeteoSwiss&#39; Open Data for free and without programming skills. / You can also obtain the access URLs of the data files in order to access them programmatically.&amp;nbsp;&lt;/span&gt;&lt;/font&gt;" style="swimlane;html=1;childLayout=stackLayout;startSize=20;rounded=0;shadow=0;labelBackgroundColor=none;strokeWidth=1;fontFamily=Verdana;fontSize=8;align=left;labelPosition=center;verticalLabelPosition=middle;verticalAlign=bottom;spacingTop=6;spacingLeft=6;whiteSpace=wrap;" parent="1" vertex="1">
          <mxGeometry x="80" y="80" width="1440" height="1270" as="geometry" />
        </mxCell>
        <mxCell id="77e6c97f196da883-2" value="WÃ¤hle Datentyp" style="swimlane;html=1;startSize=20;" parent="77e6c97f196da883-1" vertex="1">
          <mxGeometry y="20" width="160" height="1250" as="geometry" />
        </mxCell>
        <mxCell id="77e6c97f196da883-8" value="A" style="rounded=1;whiteSpace=wrap;html=1;shadow=0;labelBackgroundColor=none;strokeWidth=1;fontFamily=Verdana;fontSize=8;align=center;" parent="77e6c97f196da883-2" vertex="1">
          <mxGeometry x="30" y="30" width="100" height="60" as="geometry" />
        </mxCell>
        <mxCell id="77e6c97f196da883-9" value="C" style="rounded=1;whiteSpace=wrap;html=1;shadow=0;labelBackgroundColor=none;strokeWidth=1;fontFamily=Verdana;fontSize=8;align=center;" parent="77e6c97f196da883-2" vertex="1">
          <mxGeometry x="30" y="300" width="100" height="60" as="geometry" />
        </mxCell>
        <mxCell id="77e6c97f196da883-3" value="Datenprodukt" style="swimlane;html=1;startSize=20;" parent="77e6c97f196da883-1" vertex="1">
          <mxGeometry x="160" y="20" width="160" height="1250" as="geometry" />
        </mxCell>
        <mxCell id="77e6c97f196da883-11" value="" style="rounded=1;whiteSpace=wrap;html=1;shadow=0;labelBackgroundColor=none;strokeWidth=1;fontFamily=Verdana;fontSize=8;align=center;" parent="77e6c97f196da883-3" vertex="1">
          <mxGeometry x="30" y="30" width="100" height="20" as="geometry" />
        </mxCell>
        <mxCell id="eP5LJyJmx2GyEUPEJtx5-65" value="" style="rounded=1;whiteSpace=wrap;html=1;shadow=0;labelBackgroundColor=none;strokeWidth=1;fontFamily=Verdana;fontSize=8;align=center;" parent="77e6c97f196da883-3" vertex="1">
          <mxGeometry x="30" y="60" width="100" height="20" as="geometry" />
        </mxCell>
        <mxCell id="eP5LJyJmx2GyEUPEJtx5-66" value="" style="rounded=1;whiteSpace=wrap;html=1;shadow=0;labelBackgroundColor=none;strokeWidth=1;fontFamily=Verdana;fontSize=8;align=center;" parent="77e6c97f196da883-3" vertex="1">
          <mxGeometry x="30" y="90" width="100" height="20" as="geometry" />
        </mxCell>
        <mxCell id="eP5LJyJmx2GyEUPEJtx5-67" value="" style="rounded=1;whiteSpace=wrap;html=1;shadow=0;labelBackgroundColor=none;strokeWidth=1;fontFamily=Verdana;fontSize=8;align=center;" parent="77e6c97f196da883-3" vertex="1">
          <mxGeometry x="30" y="120" width="100" height="20" as="geometry" />
        </mxCell>
        <mxCell id="eP5LJyJmx2GyEUPEJtx5-68" value="" style="rounded=1;whiteSpace=wrap;html=1;shadow=0;labelBackgroundColor=none;strokeWidth=1;fontFamily=Verdana;fontSize=8;align=center;" parent="77e6c97f196da883-3" vertex="1">
          <mxGeometry x="30" y="150" width="100" height="20" as="geometry" />
        </mxCell>
        <mxCell id="eP5LJyJmx2GyEUPEJtx5-69" value="" style="rounded=1;whiteSpace=wrap;html=1;shadow=0;labelBackgroundColor=none;strokeWidth=1;fontFamily=Verdana;fontSize=8;align=center;" parent="77e6c97f196da883-3" vertex="1">
          <mxGeometry x="30" y="180" width="100" height="20" as="geometry" />
        </mxCell>
        <mxCell id="eP5LJyJmx2GyEUPEJtx5-70" value="" style="rounded=1;whiteSpace=wrap;html=1;shadow=0;labelBackgroundColor=none;strokeWidth=1;fontFamily=Verdana;fontSize=8;align=center;" parent="77e6c97f196da883-3" vertex="1">
          <mxGeometry x="30" y="210" width="100" height="20" as="geometry" />
        </mxCell>
        <mxCell id="eP5LJyJmx2GyEUPEJtx5-71" value="" style="rounded=1;whiteSpace=wrap;html=1;shadow=0;labelBackgroundColor=none;strokeWidth=1;fontFamily=Verdana;fontSize=8;align=center;" parent="77e6c97f196da883-3" vertex="1">
          <mxGeometry x="30" y="240" width="100" height="20" as="geometry" />
        </mxCell>
        <mxCell id="eP5LJyJmx2GyEUPEJtx5-81" value="" style="rounded=1;whiteSpace=wrap;html=1;shadow=0;labelBackgroundColor=none;strokeWidth=1;fontFamily=Verdana;fontSize=8;align=center;" parent="77e6c97f196da883-3" vertex="1">
          <mxGeometry x="30" y="300" width="100" height="20" as="geometry" />
        </mxCell>
        <mxCell id="eP5LJyJmx2GyEUPEJtx5-82" value="" style="rounded=1;whiteSpace=wrap;html=1;shadow=0;labelBackgroundColor=none;strokeWidth=1;fontFamily=Verdana;fontSize=8;align=center;" parent="77e6c97f196da883-3" vertex="1">
          <mxGeometry x="30" y="330" width="100" height="20" as="geometry" />
        </mxCell>
        <mxCell id="eP5LJyJmx2GyEUPEJtx5-83" value="" style="rounded=1;whiteSpace=wrap;html=1;shadow=0;labelBackgroundColor=none;strokeWidth=1;fontFamily=Verdana;fontSize=8;align=center;" parent="77e6c97f196da883-3" vertex="1">
          <mxGeometry x="30" y="660" width="100" height="20" as="geometry" />
        </mxCell>
        <mxCell id="eP5LJyJmx2GyEUPEJtx5-84" value="" style="rounded=1;whiteSpace=wrap;html=1;shadow=0;labelBackgroundColor=none;strokeWidth=1;fontFamily=Verdana;fontSize=8;align=center;" parent="77e6c97f196da883-3" vertex="1">
          <mxGeometry x="30" y="390" width="100" height="20" as="geometry" />
        </mxCell>
        <mxCell id="eP5LJyJmx2GyEUPEJtx5-85" value="" style="rounded=1;whiteSpace=wrap;html=1;shadow=0;labelBackgroundColor=none;strokeWidth=1;fontFamily=Verdana;fontSize=8;align=center;" parent="77e6c97f196da883-3" vertex="1">
          <mxGeometry x="30" y="810" width="100" height="20" as="geometry" />
        </mxCell>
        <mxCell id="eP5LJyJmx2GyEUPEJtx5-86" value="" style="rounded=1;whiteSpace=wrap;html=1;shadow=0;labelBackgroundColor=none;strokeWidth=1;fontFamily=Verdana;fontSize=8;align=center;" parent="77e6c97f196da883-3" vertex="1">
          <mxGeometry x="30" y="840" width="100" height="20" as="geometry" />
        </mxCell>
        <mxCell id="eP5LJyJmx2GyEUPEJtx5-87" value="" style="rounded=1;whiteSpace=wrap;html=1;shadow=0;labelBackgroundColor=none;strokeWidth=1;fontFamily=Verdana;fontSize=8;align=center;" parent="77e6c97f196da883-3" vertex="1">
          <mxGeometry x="30" y="870" width="100" height="20" as="geometry" />
        </mxCell>
        <mxCell id="eP5LJyJmx2GyEUPEJtx5-88" value="" style="rounded=1;whiteSpace=wrap;html=1;shadow=0;labelBackgroundColor=none;strokeWidth=1;fontFamily=Verdana;fontSize=8;align=center;" parent="77e6c97f196da883-3" vertex="1">
          <mxGeometry x="30" y="780" width="100" height="20" as="geometry" />
        </mxCell>
        <mxCell id="eP5LJyJmx2GyEUPEJtx5-147" style="edgeStyle=orthogonalEdgeStyle;rounded=0;orthogonalLoop=1;jettySize=auto;html=1;exitX=0.5;exitY=1;exitDx=0;exitDy=0;" parent="77e6c97f196da883-3" source="eP5LJyJmx2GyEUPEJtx5-85" target="eP5LJyJmx2GyEUPEJtx5-85" edge="1">
          <mxGeometry relative="1" as="geometry" />
        </mxCell>
        <mxCell id="77e6c97f196da883-4" value="Raumbezug" style="swimlane;html=1;startSize=20;" parent="77e6c97f196da883-1" vertex="1">
          <mxGeometry x="320" y="20" width="160" height="1250" as="geometry" />
        </mxCell>
        <mxCell id="eP5LJyJmx2GyEUPEJtx5-101" value="" style="rounded=1;whiteSpace=wrap;html=1;shadow=0;labelBackgroundColor=none;strokeWidth=1;fontFamily=Verdana;fontSize=8;align=center;" parent="77e6c97f196da883-4" vertex="1">
          <mxGeometry x="30" y="30" width="100" height="20" as="geometry" />
        </mxCell>
        <mxCell id="eP5LJyJmx2GyEUPEJtx5-102" value="" style="rounded=1;whiteSpace=wrap;html=1;shadow=0;labelBackgroundColor=none;strokeWidth=1;fontFamily=Verdana;fontSize=8;align=center;" parent="77e6c97f196da883-4" vertex="1">
          <mxGeometry x="30" y="60" width="100" height="20" as="geometry" />
        </mxCell>
        <mxCell id="eP5LJyJmx2GyEUPEJtx5-103" value="" style="rounded=1;whiteSpace=wrap;html=1;shadow=0;labelBackgroundColor=none;strokeWidth=1;fontFamily=Verdana;fontSize=8;align=center;" parent="77e6c97f196da883-4" vertex="1">
          <mxGeometry x="30" y="90" width="100" height="20" as="geometry" />
        </mxCell>
        <mxCell id="eP5LJyJmx2GyEUPEJtx5-108" value="" style="rounded=1;whiteSpace=wrap;html=1;shadow=0;labelBackgroundColor=none;strokeWidth=1;fontFamily=Verdana;fontSize=8;align=center;" parent="77e6c97f196da883-4" vertex="1">
          <mxGeometry x="30" y="180" width="100" height="20" as="geometry" />
        </mxCell>
        <mxCell id="eP5LJyJmx2GyEUPEJtx5-109" value="" style="rounded=1;whiteSpace=wrap;html=1;shadow=0;labelBackgroundColor=none;strokeWidth=1;fontFamily=Verdana;fontSize=8;align=center;" parent="77e6c97f196da883-4" vertex="1">
          <mxGeometry x="30" y="210" width="100" height="20" as="geometry" />
        </mxCell>
        <mxCell id="eP5LJyJmx2GyEUPEJtx5-110" value="" style="rounded=1;whiteSpace=wrap;html=1;shadow=0;labelBackgroundColor=none;strokeWidth=1;fontFamily=Verdana;fontSize=8;align=center;" parent="77e6c97f196da883-4" vertex="1">
          <mxGeometry x="30" y="240" width="100" height="20" as="geometry" />
        </mxCell>
        <mxCell id="eP5LJyJmx2GyEUPEJtx5-112" value="" style="rounded=1;whiteSpace=wrap;html=1;shadow=0;labelBackgroundColor=none;strokeWidth=1;fontFamily=Verdana;fontSize=8;align=center;" parent="77e6c97f196da883-4" vertex="1">
          <mxGeometry x="30" y="300" width="100" height="20" as="geometry" />
        </mxCell>
        <mxCell id="eP5LJyJmx2GyEUPEJtx5-113" value="" style="rounded=1;whiteSpace=wrap;html=1;shadow=0;labelBackgroundColor=none;strokeWidth=1;fontFamily=Verdana;fontSize=8;align=center;" parent="77e6c97f196da883-4" vertex="1">
          <mxGeometry x="30" y="330" width="100" height="20" as="geometry" />
        </mxCell>
        <mxCell id="eP5LJyJmx2GyEUPEJtx5-114" value="" style="rounded=1;whiteSpace=wrap;html=1;shadow=0;labelBackgroundColor=none;strokeWidth=1;fontFamily=Verdana;fontSize=8;align=center;" parent="77e6c97f196da883-4" vertex="1">
          <mxGeometry x="30" y="360" width="100" height="20" as="geometry" />
        </mxCell>
        <mxCell id="77e6c97f196da883-5" value="Parameter" style="swimlane;html=1;startSize=20;" parent="77e6c97f196da883-1" vertex="1">
          <mxGeometry x="480" y="20" width="160" height="1250" as="geometry" />
        </mxCell>
        <mxCell id="eP5LJyJmx2GyEUPEJtx5-89" value="" style="rounded=1;whiteSpace=wrap;html=1;shadow=0;labelBackgroundColor=none;strokeWidth=1;fontFamily=Verdana;fontSize=8;align=center;" parent="77e6c97f196da883-5" vertex="1">
          <mxGeometry x="30" y="450" width="100" height="20" as="geometry" />
        </mxCell>
        <mxCell id="eP5LJyJmx2GyEUPEJtx5-90" value="" style="rounded=1;whiteSpace=wrap;html=1;shadow=0;labelBackgroundColor=none;strokeWidth=1;fontFamily=Verdana;fontSize=8;align=center;" parent="77e6c97f196da883-5" vertex="1">
          <mxGeometry x="30" y="390" width="100" height="20" as="geometry" />
        </mxCell>
        <mxCell id="eP5LJyJmx2GyEUPEJtx5-91" value="" style="rounded=1;whiteSpace=wrap;html=1;shadow=0;labelBackgroundColor=none;strokeWidth=1;fontFamily=Verdana;fontSize=8;align=center;" parent="77e6c97f196da883-5" vertex="1">
          <mxGeometry x="30" y="420" width="100" height="20" as="geometry" />
        </mxCell>
        <mxCell id="eP5LJyJmx2GyEUPEJtx5-139" value="" style="rounded=1;whiteSpace=wrap;html=1;shadow=0;labelBackgroundColor=none;strokeWidth=1;fontFamily=Verdana;fontSize=8;align=center;" parent="77e6c97f196da883-5" vertex="1">
          <mxGeometry x="30" y="720" width="100" height="20" as="geometry" />
        </mxCell>
        <mxCell id="eP5LJyJmx2GyEUPEJtx5-140" value="" style="rounded=1;whiteSpace=wrap;html=1;shadow=0;labelBackgroundColor=none;strokeWidth=1;fontFamily=Verdana;fontSize=8;align=center;" parent="77e6c97f196da883-5" vertex="1">
          <mxGeometry x="30" y="750" width="100" height="20" as="geometry" />
        </mxCell>
        <mxCell id="eP5LJyJmx2GyEUPEJtx5-141" value="" style="rounded=1;whiteSpace=wrap;html=1;shadow=0;labelBackgroundColor=none;strokeWidth=1;fontFamily=Verdana;fontSize=8;align=center;" parent="77e6c97f196da883-5" vertex="1">
          <mxGeometry x="30" y="660" width="100" height="20" as="geometry" />
        </mxCell>
        <mxCell id="eP5LJyJmx2GyEUPEJtx5-142" value="" style="rounded=1;whiteSpace=wrap;html=1;shadow=0;labelBackgroundColor=none;strokeWidth=1;fontFamily=Verdana;fontSize=8;align=center;" parent="77e6c97f196da883-5" vertex="1">
          <mxGeometry x="30" y="690" width="100" height="20" as="geometry" />
        </mxCell>
        <mxCell id="77e6c97f196da883-6" value="&lt;font color=&quot;#ff0000&quot;&gt;Subparameter&lt;/font&gt;" style="swimlane;html=1;startSize=20;" parent="77e6c97f196da883-1" vertex="1">
          <mxGeometry x="640" y="20" width="160" height="1250" as="geometry" />
        </mxCell>
        <mxCell id="eP5LJyJmx2GyEUPEJtx5-92" value="" style="rounded=1;whiteSpace=wrap;html=1;shadow=0;labelBackgroundColor=none;strokeWidth=1;fontFamily=Verdana;fontSize=8;align=center;" parent="77e6c97f196da883-6" vertex="1">
          <mxGeometry x="30" y="630" width="100" height="20" as="geometry" />
        </mxCell>
        <mxCell id="eP5LJyJmx2GyEUPEJtx5-93" value="" style="rounded=1;whiteSpace=wrap;html=1;shadow=0;labelBackgroundColor=none;strokeWidth=1;fontFamily=Verdana;fontSize=8;align=center;" parent="77e6c97f196da883-6" vertex="1">
          <mxGeometry x="30" y="390" width="100" height="20" as="geometry" />
        </mxCell>
        <mxCell id="eP5LJyJmx2GyEUPEJtx5-94" value="" style="rounded=1;whiteSpace=wrap;html=1;shadow=0;labelBackgroundColor=none;strokeWidth=1;fontFamily=Verdana;fontSize=8;align=center;" parent="77e6c97f196da883-6" vertex="1">
          <mxGeometry x="30" y="420" width="100" height="20" as="geometry" />
        </mxCell>
        <mxCell id="eP5LJyJmx2GyEUPEJtx5-95" value="" style="rounded=1;whiteSpace=wrap;html=1;shadow=0;labelBackgroundColor=none;strokeWidth=1;fontFamily=Verdana;fontSize=8;align=center;" parent="77e6c97f196da883-6" vertex="1">
          <mxGeometry x="30" y="450" width="100" height="20" as="geometry" />
        </mxCell>
        <mxCell id="eP5LJyJmx2GyEUPEJtx5-96" value="" style="rounded=1;whiteSpace=wrap;html=1;shadow=0;labelBackgroundColor=none;strokeWidth=1;fontFamily=Verdana;fontSize=8;align=center;" parent="77e6c97f196da883-6" vertex="1">
          <mxGeometry x="30" y="480" width="100" height="20" as="geometry" />
        </mxCell>
        <mxCell id="eP5LJyJmx2GyEUPEJtx5-97" value="" style="rounded=1;whiteSpace=wrap;html=1;shadow=0;labelBackgroundColor=none;strokeWidth=1;fontFamily=Verdana;fontSize=8;align=center;" parent="77e6c97f196da883-6" vertex="1">
          <mxGeometry x="30" y="510" width="100" height="20" as="geometry" />
        </mxCell>
        <mxCell id="eP5LJyJmx2GyEUPEJtx5-98" value="" style="rounded=1;whiteSpace=wrap;html=1;shadow=0;labelBackgroundColor=none;strokeWidth=1;fontFamily=Verdana;fontSize=8;align=center;" parent="77e6c97f196da883-6" vertex="1">
          <mxGeometry x="30" y="540" width="100" height="20" as="geometry" />
        </mxCell>
        <mxCell id="eP5LJyJmx2GyEUPEJtx5-99" value="" style="rounded=1;whiteSpace=wrap;html=1;shadow=0;labelBackgroundColor=none;strokeWidth=1;fontFamily=Verdana;fontSize=8;align=center;" parent="77e6c97f196da883-6" vertex="1">
          <mxGeometry x="30" y="570" width="100" height="20" as="geometry" />
        </mxCell>
        <mxCell id="eP5LJyJmx2GyEUPEJtx5-100" value="" style="rounded=1;whiteSpace=wrap;html=1;shadow=0;labelBackgroundColor=none;strokeWidth=1;fontFamily=Verdana;fontSize=8;align=center;" parent="77e6c97f196da883-6" vertex="1">
          <mxGeometry x="30" y="600" width="100" height="20" as="geometry" />
        </mxCell>
        <mxCell id="77e6c97f196da883-7" value="Aktualisierungszyklus" style="swimlane;html=1;startSize=20;" parent="77e6c97f196da883-1" vertex="1">
          <mxGeometry x="800" y="20" width="160" height="1250" as="geometry" />
        </mxCell>
        <mxCell id="eP5LJyJmx2GyEUPEJtx5-115" value="" style="rounded=1;whiteSpace=wrap;html=1;shadow=0;labelBackgroundColor=none;strokeWidth=1;fontFamily=Verdana;fontSize=8;align=center;" parent="77e6c97f196da883-7" vertex="1">
          <mxGeometry x="30" y="30" width="100" height="20" as="geometry" />
        </mxCell>
        <mxCell id="eP5LJyJmx2GyEUPEJtx5-116" value="" style="rounded=1;whiteSpace=wrap;html=1;shadow=0;labelBackgroundColor=none;strokeWidth=1;fontFamily=Verdana;fontSize=8;align=center;" parent="77e6c97f196da883-7" vertex="1">
          <mxGeometry x="30" y="60" width="100" height="20" as="geometry" />
        </mxCell>
        <mxCell id="eP5LJyJmx2GyEUPEJtx5-117" value="" style="rounded=1;whiteSpace=wrap;html=1;shadow=0;labelBackgroundColor=none;strokeWidth=1;fontFamily=Verdana;fontSize=8;align=center;" parent="77e6c97f196da883-7" vertex="1">
          <mxGeometry x="30" y="90" width="100" height="20" as="geometry" />
        </mxCell>
        <mxCell id="eP5LJyJmx2GyEUPEJtx5-118" value="" style="rounded=1;whiteSpace=wrap;html=1;shadow=0;labelBackgroundColor=none;strokeWidth=1;fontFamily=Verdana;fontSize=8;align=center;" parent="77e6c97f196da883-7" vertex="1">
          <mxGeometry x="30" y="120" width="100" height="20" as="geometry" />
        </mxCell>
        <mxCell id="eP5LJyJmx2GyEUPEJtx5-119" value="" style="rounded=1;whiteSpace=wrap;html=1;shadow=0;labelBackgroundColor=none;strokeWidth=1;fontFamily=Verdana;fontSize=8;align=center;" parent="77e6c97f196da883-7" vertex="1">
          <mxGeometry x="30" y="210" width="100" height="20" as="geometry" />
        </mxCell>
        <mxCell id="eP5LJyJmx2GyEUPEJtx5-120" value="" style="rounded=1;whiteSpace=wrap;html=1;shadow=0;labelBackgroundColor=none;strokeWidth=1;fontFamily=Verdana;fontSize=8;align=center;" parent="77e6c97f196da883-7" vertex="1">
          <mxGeometry x="30" y="240" width="100" height="20" as="geometry" />
        </mxCell>
        <mxCell id="eP5LJyJmx2GyEUPEJtx5-121" value="" style="rounded=1;whiteSpace=wrap;html=1;shadow=0;labelBackgroundColor=none;strokeWidth=1;fontFamily=Verdana;fontSize=8;align=center;" parent="77e6c97f196da883-7" vertex="1">
          <mxGeometry x="30" y="300" width="100" height="20" as="geometry" />
        </mxCell>
        <mxCell id="eP5LJyJmx2GyEUPEJtx5-122" value="" style="rounded=1;whiteSpace=wrap;html=1;shadow=0;labelBackgroundColor=none;strokeWidth=1;fontFamily=Verdana;fontSize=8;align=center;" parent="77e6c97f196da883-7" vertex="1">
          <mxGeometry x="30" y="330" width="100" height="20" as="geometry" />
        </mxCell>
        <mxCell id="eP5LJyJmx2GyEUPEJtx5-123" value="" style="rounded=1;whiteSpace=wrap;html=1;shadow=0;labelBackgroundColor=none;strokeWidth=1;fontFamily=Verdana;fontSize=8;align=center;" parent="77e6c97f196da883-7" vertex="1">
          <mxGeometry x="30" y="360" width="100" height="20" as="geometry" />
        </mxCell>
        <mxCell id="eP5LJyJmx2GyEUPEJtx5-73" style="edgeStyle=orthogonalEdgeStyle;rounded=0;orthogonalLoop=1;jettySize=auto;html=1;entryX=0;entryY=0.5;entryDx=0;entryDy=0;" parent="77e6c97f196da883-1" source="77e6c97f196da883-8" target="eP5LJyJmx2GyEUPEJtx5-65" edge="1">
          <mxGeometry relative="1" as="geometry">
            <Array as="points">
              <mxPoint x="150" y="80" />
              <mxPoint x="150" y="90" />
            </Array>
          </mxGeometry>
        </mxCell>
        <mxCell id="eP5LJyJmx2GyEUPEJtx5-74" style="edgeStyle=orthogonalEdgeStyle;rounded=0;orthogonalLoop=1;jettySize=auto;html=1;entryX=0;entryY=0.5;entryDx=0;entryDy=0;" parent="77e6c97f196da883-1" source="77e6c97f196da883-8" target="77e6c97f196da883-11" edge="1">
          <mxGeometry relative="1" as="geometry">
            <Array as="points">
              <mxPoint x="150" y="80" />
              <mxPoint x="150" y="60" />
            </Array>
          </mxGeometry>
        </mxCell>
        <mxCell id="eP5LJyJmx2GyEUPEJtx5-75" style="edgeStyle=orthogonalEdgeStyle;rounded=0;orthogonalLoop=1;jettySize=auto;html=1;entryX=0;entryY=0.5;entryDx=0;entryDy=0;" parent="77e6c97f196da883-1" source="77e6c97f196da883-8" target="eP5LJyJmx2GyEUPEJtx5-66" edge="1">
          <mxGeometry relative="1" as="geometry">
            <Array as="points">
              <mxPoint x="150" y="80" />
              <mxPoint x="150" y="120" />
            </Array>
          </mxGeometry>
        </mxCell>
        <mxCell id="eP5LJyJmx2GyEUPEJtx5-76" style="edgeStyle=orthogonalEdgeStyle;rounded=0;orthogonalLoop=1;jettySize=auto;html=1;entryX=0;entryY=0.5;entryDx=0;entryDy=0;" parent="77e6c97f196da883-1" source="77e6c97f196da883-8" target="eP5LJyJmx2GyEUPEJtx5-67" edge="1">
          <mxGeometry relative="1" as="geometry">
            <Array as="points">
              <mxPoint x="150" y="80" />
              <mxPoint x="150" y="150" />
            </Array>
          </mxGeometry>
        </mxCell>
        <mxCell id="eP5LJyJmx2GyEUPEJtx5-77" style="edgeStyle=orthogonalEdgeStyle;rounded=0;orthogonalLoop=1;jettySize=auto;html=1;entryX=0;entryY=0.5;entryDx=0;entryDy=0;" parent="77e6c97f196da883-1" source="77e6c97f196da883-8" target="eP5LJyJmx2GyEUPEJtx5-68" edge="1">
          <mxGeometry relative="1" as="geometry">
            <Array as="points">
              <mxPoint x="150" y="80" />
              <mxPoint x="150" y="180" />
            </Array>
          </mxGeometry>
        </mxCell>
        <mxCell id="eP5LJyJmx2GyEUPEJtx5-78" style="edgeStyle=orthogonalEdgeStyle;rounded=0;orthogonalLoop=1;jettySize=auto;html=1;entryX=0;entryY=0.5;entryDx=0;entryDy=0;" parent="77e6c97f196da883-1" source="77e6c97f196da883-8" target="eP5LJyJmx2GyEUPEJtx5-69" edge="1">
          <mxGeometry relative="1" as="geometry">
            <Array as="points">
              <mxPoint x="150" y="80" />
              <mxPoint x="150" y="210" />
            </Array>
          </mxGeometry>
        </mxCell>
        <mxCell id="eP5LJyJmx2GyEUPEJtx5-79" style="edgeStyle=orthogonalEdgeStyle;rounded=0;orthogonalLoop=1;jettySize=auto;html=1;entryX=0;entryY=0.5;entryDx=0;entryDy=0;" parent="77e6c97f196da883-1" source="77e6c97f196da883-8" target="eP5LJyJmx2GyEUPEJtx5-70" edge="1">
          <mxGeometry relative="1" as="geometry">
            <Array as="points">
              <mxPoint x="150" y="80" />
              <mxPoint x="150" y="240" />
            </Array>
          </mxGeometry>
        </mxCell>
        <mxCell id="eP5LJyJmx2GyEUPEJtx5-80" style="edgeStyle=orthogonalEdgeStyle;rounded=0;orthogonalLoop=1;jettySize=auto;html=1;entryX=0;entryY=0.5;entryDx=0;entryDy=0;" parent="77e6c97f196da883-1" source="77e6c97f196da883-8" target="eP5LJyJmx2GyEUPEJtx5-71" edge="1">
          <mxGeometry relative="1" as="geometry">
            <Array as="points">
              <mxPoint x="150" y="80" />
              <mxPoint x="150" y="270" />
            </Array>
          </mxGeometry>
        </mxCell>
        <mxCell id="eP5LJyJmx2GyEUPEJtx5-105" style="edgeStyle=orthogonalEdgeStyle;rounded=0;orthogonalLoop=1;jettySize=auto;html=1;entryX=0;entryY=0.5;entryDx=0;entryDy=0;" parent="77e6c97f196da883-1" source="77e6c97f196da883-11" target="eP5LJyJmx2GyEUPEJtx5-101" edge="1">
          <mxGeometry relative="1" as="geometry" />
        </mxCell>
        <mxCell id="eP5LJyJmx2GyEUPEJtx5-106" style="edgeStyle=orthogonalEdgeStyle;rounded=0;orthogonalLoop=1;jettySize=auto;html=1;entryX=0;entryY=0.5;entryDx=0;entryDy=0;" parent="77e6c97f196da883-1" source="77e6c97f196da883-11" target="eP5LJyJmx2GyEUPEJtx5-102" edge="1">
          <mxGeometry relative="1" as="geometry">
            <Array as="points">
              <mxPoint x="330" y="60" />
              <mxPoint x="330" y="90" />
            </Array>
          </mxGeometry>
        </mxCell>
        <mxCell id="eP5LJyJmx2GyEUPEJtx5-107" style="edgeStyle=orthogonalEdgeStyle;rounded=0;orthogonalLoop=1;jettySize=auto;html=1;entryX=0;entryY=0.5;entryDx=0;entryDy=0;" parent="77e6c97f196da883-1" source="77e6c97f196da883-11" target="eP5LJyJmx2GyEUPEJtx5-103" edge="1">
          <mxGeometry relative="1" as="geometry">
            <Array as="points">
              <mxPoint x="330" y="60" />
              <mxPoint x="330" y="120" />
            </Array>
          </mxGeometry>
        </mxCell>
        <mxCell id="eP5LJyJmx2GyEUPEJtx5-1" value="Zeitinterval" style="swimlane;html=1;startSize=20;" parent="1" vertex="1">
          <mxGeometry x="1040" y="130" width="160" height="930" as="geometry" />
        </mxCell>
        <mxCell id="eP5LJyJmx2GyEUPEJtx5-124" value="" style="rounded=1;whiteSpace=wrap;html=1;shadow=0;labelBackgroundColor=none;strokeWidth=1;fontFamily=Verdana;fontSize=8;align=center;" parent="eP5LJyJmx2GyEUPEJtx5-1" vertex="1">
          <mxGeometry x="30" y="30" width="100" height="20" as="geometry" />
        </mxCell>
        <mxCell id="eP5LJyJmx2GyEUPEJtx5-125" value="" style="rounded=1;whiteSpace=wrap;html=1;shadow=0;labelBackgroundColor=none;strokeWidth=1;fontFamily=Verdana;fontSize=8;align=center;" parent="eP5LJyJmx2GyEUPEJtx5-1" vertex="1">
          <mxGeometry x="30" y="60" width="100" height="20" as="geometry" />
        </mxCell>
        <mxCell id="eP5LJyJmx2GyEUPEJtx5-126" value="" style="rounded=1;whiteSpace=wrap;html=1;shadow=0;labelBackgroundColor=none;strokeWidth=1;fontFamily=Verdana;fontSize=8;align=center;" parent="eP5LJyJmx2GyEUPEJtx5-1" vertex="1">
          <mxGeometry x="30" y="90" width="100" height="20" as="geometry" />
        </mxCell>
        <mxCell id="eP5LJyJmx2GyEUPEJtx5-127" value="" style="rounded=1;whiteSpace=wrap;html=1;shadow=0;labelBackgroundColor=none;strokeWidth=1;fontFamily=Verdana;fontSize=8;align=center;" parent="eP5LJyJmx2GyEUPEJtx5-1" vertex="1">
          <mxGeometry x="30" y="120" width="100" height="20" as="geometry" />
        </mxCell>
        <mxCell id="eP5LJyJmx2GyEUPEJtx5-128" value="" style="rounded=1;whiteSpace=wrap;html=1;shadow=0;labelBackgroundColor=none;strokeWidth=1;fontFamily=Verdana;fontSize=8;align=center;" parent="eP5LJyJmx2GyEUPEJtx5-1" vertex="1">
          <mxGeometry x="30" y="150" width="100" height="20" as="geometry" />
        </mxCell>
        <mxCell id="eP5LJyJmx2GyEUPEJtx5-133" value="" style="rounded=1;whiteSpace=wrap;html=1;shadow=0;labelBackgroundColor=none;strokeWidth=1;fontFamily=Verdana;fontSize=8;align=center;" parent="eP5LJyJmx2GyEUPEJtx5-1" vertex="1">
          <mxGeometry x="30" y="300" width="100" height="20" as="geometry" />
        </mxCell>
        <mxCell id="eP5LJyJmx2GyEUPEJtx5-134" value="" style="rounded=1;whiteSpace=wrap;html=1;shadow=0;labelBackgroundColor=none;strokeWidth=1;fontFamily=Verdana;fontSize=8;align=center;" parent="eP5LJyJmx2GyEUPEJtx5-1" vertex="1">
          <mxGeometry x="30" y="330" width="100" height="20" as="geometry" />
        </mxCell>
        <mxCell id="eP5LJyJmx2GyEUPEJtx5-135" value="" style="rounded=1;whiteSpace=wrap;html=1;shadow=0;labelBackgroundColor=none;strokeWidth=1;fontFamily=Verdana;fontSize=8;align=center;" parent="eP5LJyJmx2GyEUPEJtx5-1" vertex="1">
          <mxGeometry x="30" y="360" width="100" height="20" as="geometry" />
        </mxCell>
        <mxCell id="eP5LJyJmx2GyEUPEJtx5-143" value="" style="rounded=1;whiteSpace=wrap;html=1;shadow=0;labelBackgroundColor=none;strokeWidth=1;fontFamily=Verdana;fontSize=8;align=center;" parent="eP5LJyJmx2GyEUPEJtx5-1" vertex="1">
          <mxGeometry x="30" y="720" width="100" height="20" as="geometry" />
        </mxCell>
        <mxCell id="eP5LJyJmx2GyEUPEJtx5-144" value="" style="rounded=1;whiteSpace=wrap;html=1;shadow=0;labelBackgroundColor=none;strokeWidth=1;fontFamily=Verdana;fontSize=8;align=center;" parent="eP5LJyJmx2GyEUPEJtx5-1" vertex="1">
          <mxGeometry x="30" y="750" width="100" height="20" as="geometry" />
        </mxCell>
        <mxCell id="eP5LJyJmx2GyEUPEJtx5-145" value="" style="rounded=1;whiteSpace=wrap;html=1;shadow=0;labelBackgroundColor=none;strokeWidth=1;fontFamily=Verdana;fontSize=8;align=center;" parent="eP5LJyJmx2GyEUPEJtx5-1" vertex="1">
          <mxGeometry x="30" y="660" width="100" height="20" as="geometry" />
        </mxCell>
        <mxCell id="eP5LJyJmx2GyEUPEJtx5-146" value="" style="rounded=1;whiteSpace=wrap;html=1;shadow=0;labelBackgroundColor=none;strokeWidth=1;fontFamily=Verdana;fontSize=8;align=center;" parent="eP5LJyJmx2GyEUPEJtx5-1" vertex="1">
          <mxGeometry x="30" y="690" width="100" height="20" as="geometry" />
        </mxCell>
        <mxCell id="eP5LJyJmx2GyEUPEJtx5-3" value="Zeitperiode" style="swimlane;html=1;startSize=20;" parent="1" vertex="1">
          <mxGeometry x="1200" y="130" width="160" height="930" as="geometry" />
        </mxCell>
        <mxCell id="eP5LJyJmx2GyEUPEJtx5-129" value="" style="rounded=1;whiteSpace=wrap;html=1;shadow=0;labelBackgroundColor=none;strokeWidth=1;fontFamily=Verdana;fontSize=8;align=center;" parent="eP5LJyJmx2GyEUPEJtx5-3" vertex="1">
          <mxGeometry x="30" y="30" width="100" height="20" as="geometry" />
        </mxCell>
        <mxCell id="eP5LJyJmx2GyEUPEJtx5-130" value="" style="rounded=1;whiteSpace=wrap;html=1;shadow=0;labelBackgroundColor=none;strokeWidth=1;fontFamily=Verdana;fontSize=8;align=center;" parent="eP5LJyJmx2GyEUPEJtx5-3" vertex="1">
          <mxGeometry x="30" y="60" width="100" height="20" as="geometry" />
        </mxCell>
        <mxCell id="eP5LJyJmx2GyEUPEJtx5-131" value="" style="rounded=1;whiteSpace=wrap;html=1;shadow=0;labelBackgroundColor=none;strokeWidth=1;fontFamily=Verdana;fontSize=8;align=center;" parent="eP5LJyJmx2GyEUPEJtx5-3" vertex="1">
          <mxGeometry x="30" y="90" width="100" height="20" as="geometry" />
        </mxCell>
        <mxCell id="eP5LJyJmx2GyEUPEJtx5-132" value="" style="rounded=1;whiteSpace=wrap;html=1;shadow=0;labelBackgroundColor=none;strokeWidth=1;fontFamily=Verdana;fontSize=8;align=center;" parent="eP5LJyJmx2GyEUPEJtx5-3" vertex="1">
          <mxGeometry x="30" y="120" width="100" height="20" as="geometry" />
        </mxCell>
        <mxCell id="eP5LJyJmx2GyEUPEJtx5-136" value="" style="rounded=1;whiteSpace=wrap;html=1;shadow=0;labelBackgroundColor=none;strokeWidth=1;fontFamily=Verdana;fontSize=8;align=center;" parent="eP5LJyJmx2GyEUPEJtx5-3" vertex="1">
          <mxGeometry x="30" y="300" width="100" height="20" as="geometry" />
        </mxCell>
        <mxCell id="eP5LJyJmx2GyEUPEJtx5-137" value="" style="rounded=1;whiteSpace=wrap;html=1;shadow=0;labelBackgroundColor=none;strokeWidth=1;fontFamily=Verdana;fontSize=8;align=center;" parent="eP5LJyJmx2GyEUPEJtx5-3" vertex="1">
          <mxGeometry x="30" y="330" width="100" height="20" as="geometry" />
        </mxCell>
        <mxCell id="eP5LJyJmx2GyEUPEJtx5-138" value="" style="rounded=1;whiteSpace=wrap;html=1;shadow=0;labelBackgroundColor=none;strokeWidth=1;fontFamily=Verdana;fontSize=8;align=center;" parent="eP5LJyJmx2GyEUPEJtx5-3" vertex="1">
          <mxGeometry x="30" y="360" width="100" height="20" as="geometry" />
        </mxCell>
        <mxCell id="eP5LJyJmx2GyEUPEJtx5-5" value="Beziehe Daten" style="swimlane;html=1;startSize=20;" parent="1" vertex="1">
          <mxGeometry x="1360" y="130" width="160" height="930" as="geometry" />
        </mxCell>
        <mxCell id="77e6c97f196da883-10" value="B" style="rounded=1;whiteSpace=wrap;html=1;shadow=0;labelBackgroundColor=none;strokeWidth=1;fontFamily=Verdana;fontSize=8;align=center;" parent="1" vertex="1">
          <mxGeometry x="110" y="1050" width="100" height="60" as="geometry" />
        </mxCell>
      </root>
    </mxGraphModel>
  </diagram>
</mxfile>
